<?xml version="1.0" standalone="no"?>
<!DOCTYPE svg PUBLIC "-//W3C//DTD SVG 20010904//EN"
 "http://www.w3.org/TR/2001/REC-SVG-20010904/DTD/svg10.dtd">
<svg version="1.0" xmlns="http://www.w3.org/2000/svg"
 width="623.000000pt" height="451.000000pt" viewBox="0 0 623.000000 451.000000"
 preserveAspectRatio="xMidYMid meet">

<g transform="translate(0.000000,451.000000) scale(0.100000,-0.100000)"
fill="#000000" stroke="none">
<path d="M6190 1972 c-26 -21 -38 -81 -39 -190 -2 -123 -69 -365 -147 -522
-23 -47 -45 -96 -49 -110 -4 -14 -31 -68 -59 -120 -38 -72 -72 -117 -138 -186
-78 -80 -100 -97 -192 -142 -104 -51 -206 -82 -273 -82 -48 0 -203 53 -283 97
-36 19 -96 60 -134 91 -45 36 -78 55 -96 55 -14 0 -53 -18 -86 -40 -168 -114
-338 -163 -566 -163 -181 0 -317 30 -463 103 -277 137 -441 407 -395 651 11
58 10 69 -4 91 -13 20 -25 25 -56 25 -44 0 -53 -9 -110 -111 -68 -121 -208
-240 -360 -306 -155 -66 -215 -78 -420 -77 -172 0 -191 2 -275 28 -128 39
-241 96 -331 168 -51 40 -87 61 -104 61 -14 0 -53 -18 -86 -40 -168 -114 -338
-163 -566 -163 -230 0 -415 55 -583 175 -202 143 -316 383 -275 579 14 70 3
99 -43 116 -59 20 -57 30 -57 -215 0 -223 0 -226 26 -278 59 -116 176 -250
285 -324 71 -49 196 -108 285 -136 310 -98 634 -69 920 82 l92 48 63 -44 c331
-232 784 -267 1154 -89 98 47 231 141 281 198 l32 36 6 -46 c14 -105 87 -238
190 -349 81 -87 160 -145 271 -201 336 -168 741 -162 1081 17 l92 48 63 -44
c85 -59 197 -115 294 -147 92 -30 191 -34 273 -11 28 8 73 21 100 28 26 8 85
32 132 55 73 34 103 58 207 159 81 78 128 131 139 158 9 22 38 84 65 139 27
54 62 135 78 180 16 44 45 115 65 156 l36 74 0 268 c0 150 -4 268 -9 268 -5 0
-19 -8 -31 -18z"/>
</g>
</svg>
