<svg id="svg" version="1.1" xmlns="http://www.w3.org/2000/svg" xmlns:xlink="http://www.w3.org/1999/xlink" width="400" height="99.51845906902086" viewBox="0, 0, 400,99.51845906902086"><g id="svgg"><path id="path0" d="M0.458 31.119 L -0.000 31.189 -0.000 65.344 L 0.000 99.500 200.000 99.500 L 400.001 99.500 399.959 65.375 L 399.917 31.250 397.833 31.275 C 390.607 31.363,384.550 36.503,381.169 45.417 C 380.961 45.967,380.416 47.204,379.958 48.167 C 379.072 50.030,378.167 52.202,378.167 52.464 C 378.167 52.745,376.551 55.714,375.472 57.417 C 375.239 57.783,374.434 59.283,373.683 60.750 C 371.621 64.774,367.984 69.161,364.555 71.759 C 363.898 72.257,362.998 73.096,362.555 73.624 C 361.325 75.089,358.772 76.727,355.291 78.282 C 354.194 78.773,352.797 79.470,352.187 79.833 C 350.495 80.838,349.401 81.223,345.363 82.235 C 341.071 83.311,340.397 83.357,337.947 82.739 C 329.288 80.557,320.430 76.043,315.250 71.173 C 311.048 67.221,305.747 66.286,301.732 68.787 C 301.176 69.133,300.104 69.792,299.350 70.250 C 298.596 70.708,297.323 71.544,296.521 72.108 C 294.830 73.297,290.524 75.502,288.565 76.181 C 287.822 76.439,286.455 76.953,285.527 77.322 C 283.393 78.173,278.851 79.421,277.000 79.667 C 276.221 79.770,274.238 80.075,272.594 80.344 C 268.168 81.069,262.161 81.068,257.740 80.343 C 256.095 80.073,254.089 79.766,253.282 79.659 C 245.863 78.683,233.434 72.967,227.917 67.995 C 227.550 67.664,226.987 67.217,226.667 67.001 C 225.456 66.184,224.008 64.798,223.063 63.548 C 222.524 62.836,221.845 61.990,221.554 61.669 C 220.741 60.769,219.958 59.690,219.253 58.500 C 218.900 57.904,218.443 57.148,218.238 56.820 C 218.034 56.492,217.604 55.704,217.284 55.070 C 216.964 54.436,216.069 53.084,215.295 52.066 C 214.520 51.049,213.342 49.380,212.676 48.359 C 210.652 45.256,209.240 44.269,204.536 42.670 C 198.692 40.683,195.579 40.874,189.083 43.616 C 185.469 45.141,184.633 45.571,182.506 46.996 C 181.381 47.750,179.663 48.799,178.689 49.328 C 177.714 49.857,176.354 50.595,175.667 50.969 C 170.987 53.515,161.574 56.179,156.144 56.496 C 154.803 56.574,152.745 56.772,151.571 56.935 C 149.520 57.220,149.344 57.220,147.093 56.931 C 145.804 56.766,143.662 56.569,142.333 56.493 C 132.318 55.922,118.458 50.004,111.333 43.256 C 107.064 39.212,102.000 38.688,97.206 41.792 C 96.222 42.430,95.042 43.165,94.583 43.427 C 94.125 43.688,93.225 44.291,92.583 44.767 C 91.096 45.870,87.307 47.762,84.833 48.638 C 83.779 49.011,82.356 49.548,81.670 49.831 C 79.755 50.622,75.307 51.823,73.326 52.084 C 72.348 52.213,70.393 52.527,68.982 52.782 C 64.975 53.505,58.242 53.476,53.917 52.718 C 52.267 52.429,50.279 52.109,49.500 52.008 C 42.589 51.107,29.889 45.338,24.917 40.841 C 24.550 40.509,23.800 39.907,23.250 39.504 C 22.700 39.100,21.575 38.150,20.750 37.392 C 16.675 33.651,14.727 32.619,10.261 31.835 C 6.385 31.155,2.228 30.851,0.458 31.119 " stroke="none" fill="#fcfcfc" fill-rule="evenodd"></path><path id="path1" d="" stroke="none" fill="#f4f4f4" fill-rule="evenodd"></path><path id="path2" d="" stroke="none" fill="#fc100f8" fill-rule="evenodd"></path><path id="path3" d="" stroke="none" fill="#fc100f8" fill-rule="evenodd"></path><path id="path4" d="" stroke="none" fill="#fc100f8" fill-rule="evenodd"></path></g></svg>