<?xml version="1.0" standalone="no"?>
<!DOCTYPE svg PUBLIC "-//W3C//DTD SVG 20010904//EN"
 "http://www.w3.org/TR/2001/REC-SVG-20010904/DTD/svg10.dtd">
<svg version="1.0" xmlns="http://www.w3.org/2000/svg"
 width="607.000000pt" height="141.000000pt" viewBox="0 0 607.000000 141.000000"
 preserveAspectRatio="xMidYMid meet">

<g transform="translate(0.000000,141.000000) scale(0.100000,-0.100000)"
fill="#ffffff" stroke="none">
<path d="M485 1399 c-62 -8 -183 -43 -200 -60 -5 -5 16 -9 55 -9 85 0 174 -22
257 -62 94 -46 217 -168 261 -261 142 -298 30 -640 -258 -787 -67 -34 -129
-51 -215 -58 l-80 -7 75 -25 c64 -21 93 -25 195 -24 102 0 132 5 201 27 208
69 375 249 429 462 20 78 19 232 -1 314 -64 257 -288 457 -549 489 -44 6 -87
10 -95 9 -8 -1 -42 -4 -75 -8z"/>
<path d="M252 1148 l-33 -107 -111 -3 -111 -3 86 -60 c48 -33 86 -65 87 -71 0
-5 -13 -50 -30 -99 -16 -49 -28 -90 -26 -93 3 -2 42 23 87 56 l83 60 31 -21
c16 -11 54 -39 83 -60 29 -22 55 -38 57 -35 3 2 -9 44 -25 93 -17 49 -30 94
-30 99 1 6 39 38 87 71 l86 60 -111 3 -110 3 -34 107 -33 107 -33 -107z"/>
<path d="M1543 1064 c-21 -8 -39 -14 -39 -14 -1 0 -18 -24 -37 -52 -60 -88
-125 -312 -152 -528 -18 -138 -14 -210 15 -258 33 -54 118 -56 188 -6 83 59
91 89 112 373 12 166 26 254 40 246 16 -10 30 -78 30 -145 0 -83 8 -110 30
-110 84 0 156 352 96 468 -24 46 -67 45 -117 -4 l-36 -35 -20 34 c-24 41 -56
49 -110 31z"/>
<path d="M2395 1066 c-152 -49 -297 -175 -377 -331 -62 -122 -89 -213 -90
-305 -2 -143 63 -226 195 -250 133 -25 331 61 495 214 55 52 64 79 33 96 -40
21 -77 11 -152 -40 -115 -79 -202 -95 -235 -45 -12 19 -11 20 29 20 66 0 133
40 228 134 63 63 95 105 120 155 73 151 40 312 -74 355 -37 14 -122 13 -172
-3z m42 -218 c-7 -84 -44 -209 -82 -274 -13 -22 -41 -57 -62 -77 -37 -37 -38
-37 -46 -15 -20 54 21 214 89 351 46 92 72 121 92 105 12 -10 13 -29 9 -90z"/>
<path d="M5769 1070 c-219 -39 -430 -242 -446 -426 -9 -111 41 -160 227 -224
129 -44 160 -69 160 -127 0 -93 -116 -203 -157 -148 -19 27 -16 103 7 154 30
64 27 71 -25 71 -118 0 -259 -138 -241 -236 9 -43 39 -80 89 -106 62 -33 215
-31 313 4 128 45 277 168 328 270 37 73 36 154 0 198 -31 36 -66 52 -189 86
-133 36 -165 53 -182 92 -17 40 -10 87 23 157 27 58 86 120 107 112 8 -3 20
-26 27 -51 12 -46 9 -87 -16 -212 -5 -28 -3 -32 26 -44 68 -28 166 36 219 142
35 69 38 102 15 156 -43 104 -155 156 -285 132z"/>
<path d="M3280 1052 c-267 -89 -518 -385 -537 -632 -7 -85 10 -142 55 -192 48
-53 102 -78 173 -78 98 0 211 72 355 229 l59 64 7 -85 c10 -141 54 -198 151
-198 51 0 130 37 171 79 27 28 28 31 15 63 -9 23 -14 95 -15 244 0 116 -4 216
-8 223 -4 6 -18 11 -32 11 -28 0 -29 5 -9 53 35 85 6 153 -87 201 -75 38 -212
46 -298 18z m68 -142 c22 -42 10 -130 -26 -199 -30 -57 -30 -61 -13 -70 12 -7
37 -6 77 4 32 7 60 12 62 10 5 -5 -177 -168 -221 -198 -61 -41 -84 -44 -114
-14 -75 74 -12 277 137 446 50 57 76 62 98 21z"/>
<path d="M4135 1050 c-75 -16 -118 -71 -191 -243 -105 -249 -151 -413 -139
-497 12 -81 48 -127 107 -136 68 -11 133 42 320 261 47 55 97 111 112 125 l27
24 -35 -95 c-19 -52 -37 -115 -41 -140 -19 -127 75 -218 181 -175 27 11 90 69
205 187 l165 170 0 -168 c-1 -150 1 -173 20 -213 23 -50 73 -103 118 -127 62
-32 167 -12 201 40 12 20 12 31 -1 92 -27 122 -28 253 -5 452 26 226 17 284
-49 318 -69 36 -102 16 -283 -168 -75 -77 -139 -138 -142 -136 -2 3 14 60 35
128 44 135 49 185 24 237 -23 49 -59 74 -106 74 -85 0 -157 -58 -340 -277 -66
-80 -122 -142 -125 -140 -2 3 14 60 37 126 23 67 44 145 47 174 4 46 2 55 -20
75 -30 28 -80 41 -122 32z"/>
<path d="M547 760 c-3 -8 -11 -35 -19 -60 l-13 -45 -68 -5 -67 -5 50 -34 c55
-37 58 -49 34 -111 -9 -23 -14 -43 -12 -46 3 -3 18 6 34 19 56 46 68 49 105
21 19 -14 42 -30 51 -35 18 -10 16 1 -13 80 -7 20 -8 36 -3 38 5 2 31 19 58
38 l50 35 -71 0 -70 0 -20 63 c-12 35 -23 56 -26 47z"/>
</g>
</svg>
